<svg width="35.669067" height="36.076904" viewBox="0 0 35.6691 36.0769" fill="none" xmlns="http://www.w3.org/2000/svg" xmlns:xlink="http://www.w3.org/1999/xlink">
	<desc>
			Created with Pixso.
	</desc>
	<defs>
		<clipPath id="clip15_90">
			<rect id="Frame" rx="-0.500000" width="34.669117" height="35.076923" transform="translate(0.500000 0.500000)" fill="white" fill-opacity="0"/>
		</clipPath>
	</defs>
	<rect id="Frame" rx="-0.500000" width="34.669117" height="35.076923" transform="translate(0.500000 0.500000)" fill="#FFFFFF" fill-opacity="0"/>
	<g clip-path="url(#clip15_90)">
		<path id="Vector" d="M31.41 22.26L31.41 16.98L25.14 16.98L25.14 12.68L4.25 12.68L4.25 31.84C4.25 34.18 6.12 36.07 8.43 36.07L20.96 36.07C23.27 36.07 25.14 34.18 25.14 31.84L25.14 29.62C28.68 29.11 31.41 25.98 31.41 22.26ZM29.32 22.26C29.32 24.81 27.53 27.02 25.14 27.51L25.14 19.09L29.32 19.09L29.32 22.26ZM9.41 1.57L8.01 0C5.08 2.66 6.66 4.71 7.6 5.93C8.52 7.13 8.86 7.57 7.69 8.76L9.16 10.26C11.65 7.75 10.15 5.8 9.25 4.63C8.29 3.38 7.93 2.92 9.41 1.57ZM14.64 1.57L13.24 0C10.31 2.66 11.88 4.71 12.83 5.93C13.74 7.13 14.09 7.57 12.91 8.76L14.39 10.26C16.87 7.75 15.37 5.8 14.47 4.63C13.51 3.38 13.15 2.92 14.64 1.57ZM19.86 1.57L18.46 0C15.53 2.66 17.11 4.71 18.05 5.93C18.97 7.13 19.31 7.57 18.14 8.76L19.61 10.26C22.09 7.75 20.59 5.8 19.7 4.63C18.74 3.38 18.38 2.92 19.86 1.57Z" fill="#64099B" fill-opacity="1.000000" fill-rule="nonzero"/>
	</g>
</svg>
