<svg width="26.000000" height="26.000000" viewBox="0 0 26 26" fill="none" xmlns="http://www.w3.org/2000/svg" xmlns:xlink="http://www.w3.org/1999/xlink">
	<desc>
			Created with Pixso.
	</desc>
	<defs/>
	<path id="Vector" d="M13 0C5.82 0 0 5.82 0 13C0 20.17 5.82 26 13 26C20.17 26 26 20.17 26 13C26 5.82 20.17 0 13 0ZM19.03 8.83C18.83 10.89 17.99 15.88 17.56 18.18C17.38 19.16 17.01 19.48 16.67 19.52C15.92 19.59 15.35 19.03 14.62 18.55C13.48 17.79 12.83 17.32 11.72 16.6C10.43 15.75 11.27 15.28 12.01 14.53C12.2 14.33 15.53 11.31 15.6 11.03C15.6 10.99 15.6 10.95 15.59 10.91C15.58 10.87 15.56 10.83 15.53 10.8C15.45 10.73 15.35 10.76 15.26 10.77C15.14 10.8 13.32 12.01 9.77 14.4C9.25 14.75 8.78 14.93 8.37 14.92C7.9 14.91 7.02 14.66 6.35 14.44C5.53 14.18 4.9 14.04 4.95 13.58C4.97 13.35 5.3 13.11 5.91 12.87C9.71 11.21 12.23 10.12 13.49 9.6C17.1 8.09 17.84 7.83 18.34 7.83C18.44 7.83 18.69 7.86 18.85 7.99C18.98 8.09 19.01 8.24 19.03 8.34C19.01 8.42 19.04 8.65 19.03 8.83Z" fill="#FFFFFF" fill-opacity="1.000000" fill-rule="nonzero"/>
</svg>
