<?xml version="1.0" standalone="no"?>
<!DOCTYPE svg PUBLIC "-//W3C//DTD SVG 20010904//EN"
 "http://www.w3.org/TR/2001/REC-SVG-20010904/DTD/svg10.dtd">
<svg version="1.0" xmlns="http://www.w3.org/2000/svg"
 width="700.000000pt" height="700.000000pt" viewBox="0 0 700.000000 700.000000"
 preserveAspectRatio="xMidYMid meet">
<metadata>
Created by potrace 1.14, written by Peter Selinger 2001-2017
</metadata>
<g transform="translate(0.000000,700.000000) scale(0.100000,-0.100000)"
fill="#000000" stroke="none">
<path d="M1481 6898 c-10 -3 -38 -30 -63 -60 -198 -236 -228 -491 -88 -752 31
-57 187 -279 225 -320 24 -26 67 -100 83 -144 34 -88 9 -169 -81 -268 l-48
-53 144 -147 145 -146 35 38 c165 184 236 345 231 520 -5 154 -71 297 -240
524 -125 167 -160 227 -170 287 -12 76 38 169 146 273 l47 45 -76 85 c-112
126 -109 123 -197 124 -41 1 -83 -2 -93 -6z"/>
<path d="M2524 6902 c-25 -2 -42 -16 -80 -65 -193 -243 -226 -475 -104 -720
42 -83 58 -107 202 -300 110 -147 130 -187 134 -259 4 -67 -23 -126 -92 -203
-24 -27 -44 -52 -44 -55 0 -3 64 -70 143 -148 l143 -143 40 44 c67 75 77 90
125 170 118 194 129 388 35 593 -39 82 -79 144 -209 316 -51 68 -103 145 -115
171 -21 44 -30 110 -20 147 11 43 56 109 119 175 l71 74 -45 48 c-25 26 -62
69 -83 95 -22 26 -48 50 -59 53 -26 7 -120 11 -161 7z"/>
<path d="M3484 6857 c-157 -175 -222 -399 -173 -593 32 -129 73 -202 236 -421
63 -83 123 -173 135 -200 43 -96 21 -180 -72 -287 l-49 -56 142 -144 c78 -79
146 -142 152 -139 5 2 40 41 78 86 84 103 151 236 170 337 38 210 -17 367
-229 650 -163 218 -188 274 -162 369 12 42 73 127 139 192 l47 46 -37 39 c-20
22 -61 68 -92 102 l-57 63 -92 2 -92 2 -44 -48z"/>
<path d="M836 2628 c1 -1052 4 -1926 8 -1943 28 -125 55 -194 110 -290 49 -84
180 -217 260 -264 l57 -34 1614 0 1614 0 56 34 c122 73 264 245 317 381 55
142 61 193 61 496 1 237 1 243 21 247 411 82 714 273 941 590 96 135 203 366
229 497 3 12 10 48 16 78 20 105 24 197 24 740 l1 545 -610 1 c-336 1 -613 2
-616 3 -3 0 -5 187 -5 414 l0 412 -2050 3 -2050 2 2 -1912z m4919 342 c0 -392
-6 -457 -52 -604 -82 -261 -263 -477 -513 -613 -52 -28 -191 -78 -235 -85 -20
-3 -20 3 -21 807 0 446 3 812 7 815 4 3 189 5 411 5 l402 0 1 -325z"/>
</g>
</svg>
