<svg width="99.846802" height="66.856689" viewBox="0 0 99.8468 66.8567" fill="none" xmlns="http://www.w3.org/2000/svg" xmlns:xlink="http://www.w3.org/1999/xlink">
	<desc>
			Created with Pixso.
	</desc>
	<defs>
		<clipPath id="clip15_90">
			<rect id="Frame" rx="-0.500000" width="34.669117" height="35.076923" transform="translate(64.677734 0.500000)" fill="white" fill-opacity="0"/>
		</clipPath>
	</defs>
	<path id="Vector" d="M70.5 66.85L70.5 39.99L89.65 39.99L89.65 45.86L77.71 45.86L77.71 50.48L88.66 50.48L88.66 56.36L77.71 56.36L77.71 60.97L89.6 60.97L89.6 66.85L70.5 66.85Z" fill="#FFFFFF" fill-opacity="1.000000" fill-rule="nonzero"/>
	<path id="Vector" d="M36.45 39.99L45.43 39.99L51.61 55.2L51.92 55.2L58.09 39.99L67.08 39.99L67.08 66.85L60.02 66.85L60.02 51.32L59.81 51.32L53.89 66.64L49.63 66.64L43.71 51.21L43.51 51.21L43.51 66.85L36.45 66.85L36.45 39.99Z" fill="#FFFFFF" fill-opacity="1.000000" fill-rule="nonzero"/>
	<path id="Vector" d="M33.03 39.99L33.03 66.85L25.81 66.85L25.81 39.99L33.03 39.99Z" fill="#FFFFFF" fill-opacity="1.000000" fill-rule="nonzero"/>
	<path id="Vector" d="M0 45.86L0 39.99L23.1 39.99L23.1 45.86L15.1 45.86L15.1 66.85L7.99 66.85L7.99 45.86L0 45.86Z" fill="#FFFFFF" fill-opacity="1.000000" fill-rule="nonzero"/>
	<path id="Vector" d="M46.28 34.87L46.28 12.75L55.72 12.75C57.35 12.75 58.77 13.08 59.98 13.73C61.2 14.37 62.15 15.28 62.83 16.46C63.5 17.63 63.84 19 63.84 20.57C63.84 22.16 63.49 23.53 62.79 24.69C62.1 25.84 61.13 26.74 59.88 27.36C58.63 27.99 57.18 28.3 55.51 28.3L49.87 28.3L49.87 23.64L54.31 23.64C55.01 23.64 55.6 23.52 56.1 23.27C56.59 23.02 56.98 22.66 57.24 22.2C57.51 21.74 57.65 21.2 57.65 20.57C57.65 19.94 57.51 19.4 57.24 18.95C56.98 18.5 56.59 18.15 56.1 17.92C55.6 17.67 55.01 17.55 54.31 17.55L52.22 17.55L52.22 34.87L46.28 34.87Z" fill="#64099B" fill-opacity="1.000000" fill-rule="nonzero"/>
	<path id="Vector" d="M36.79 12.75L42.73 12.75L42.73 26.92C42.73 28.61 42.33 30.06 41.53 31.29C40.74 32.52 39.64 33.47 38.22 34.13C36.8 34.8 35.16 35.13 33.28 35.13C31.4 35.13 29.74 34.8 28.33 34.13C26.91 33.47 25.81 32.52 25.02 31.29C24.23 30.06 23.84 28.61 23.84 26.92L23.84 12.75L29.78 12.75L29.78 26.4C29.78 27.09 29.93 27.7 30.23 28.24C30.53 28.77 30.94 29.19 31.47 29.49C32 29.79 32.61 29.94 33.28 29.94C33.97 29.94 34.57 29.79 35.1 29.49C35.63 29.19 36.04 28.77 36.34 28.24C36.64 27.7 36.79 27.09 36.79 26.4L36.79 12.75Z" fill="#64099B" fill-opacity="1.000000" fill-rule="nonzero"/>
	<path id="Vector" d="M21.15 21.05L15.12 21.05C15.08 20.54 14.96 20.09 14.78 19.68C14.6 19.26 14.35 18.91 14.03 18.62C13.72 18.31 13.34 18.08 12.89 17.93C12.44 17.76 11.93 17.68 11.36 17.68C10.36 17.68 9.52 17.92 8.83 18.41C8.14 18.9 7.62 19.6 7.27 20.52C6.92 21.43 6.74 22.53 6.74 23.81C6.74 25.16 6.92 26.3 7.28 27.21C7.64 28.12 8.17 28.8 8.85 29.26C9.53 29.72 10.36 29.94 11.32 29.94C11.87 29.94 12.36 29.88 12.79 29.74C13.23 29.6 13.6 29.39 13.92 29.12C14.24 28.86 14.5 28.54 14.7 28.16C14.91 27.78 15.05 27.35 15.12 26.88L21.15 26.92C21.07 27.86 20.81 28.81 20.37 29.78C19.92 30.75 19.28 31.64 18.45 32.46C17.63 33.27 16.62 33.93 15.41 34.43C14.2 34.92 12.79 35.17 11.19 35.17C9.18 35.17 7.38 34.74 5.78 33.86C4.2 32.99 2.94 31.71 2.01 30.02C1.09 28.33 0.63 26.26 0.63 23.81C0.63 21.35 1.1 19.28 2.04 17.59C2.98 15.9 4.25 14.62 5.85 13.76C7.44 12.89 9.22 12.45 11.19 12.45C12.57 12.45 13.84 12.64 15 13.02C16.16 13.4 17.18 13.96 18.06 14.7C18.93 15.42 19.64 16.32 20.17 17.39C20.71 18.45 21.03 19.67 21.15 21.05Z" fill="#64099B" fill-opacity="1.000000" fill-rule="nonzero"/>
	<rect id="Frame" rx="-0.500000" width="34.669117" height="35.076923" transform="translate(64.677734 0.500000)" fill="#FFFFFF" fill-opacity="0"/>
	<g clip-path="url(#clip15_90)">
		<path id="Vector" d="M95.59 22.26L95.59 16.98L89.32 16.98L89.32 12.68L68.42 12.68L68.42 31.84C68.42 34.18 70.3 36.07 72.6 36.07L85.14 36.07C87.45 36.07 89.32 34.18 89.32 31.84L89.32 29.62C92.86 29.11 95.59 25.98 95.59 22.26ZM93.5 22.26C93.5 24.81 91.7 27.02 89.32 27.51L89.32 19.09L93.5 19.09L93.5 22.26ZM73.59 1.57L72.19 0C69.26 2.66 70.84 4.71 71.78 5.93C72.7 7.13 73.04 7.57 71.86 8.76L73.34 10.26C75.82 7.75 74.32 5.8 73.43 4.63C72.47 3.38 72.11 2.92 73.59 1.57ZM78.81 1.57L77.42 0C74.49 2.66 76.06 4.71 77 5.93C77.92 7.13 78.27 7.57 77.09 8.76L78.57 10.26C81.05 7.75 79.55 5.8 78.65 4.63C77.69 3.38 77.33 2.92 78.81 1.57ZM84.04 1.57L82.64 0C79.71 2.66 81.29 4.71 82.23 5.93C83.15 7.13 83.49 7.57 82.31 8.76L83.79 10.26C86.27 7.75 84.77 5.8 83.88 4.63C82.92 3.38 82.56 2.92 84.04 1.57Z" fill="#64099B" fill-opacity="1.000000" fill-rule="nonzero"/>
	</g>
</svg>
