<svg width="26.000000" height="26.000000" viewBox="0 0 26 26" fill="none" xmlns="http://www.w3.org/2000/svg" xmlns:xlink="http://www.w3.org/1999/xlink">
	<desc>
			Created with Pixso.
	</desc>
	<defs/>
	<path id="Vector" d="M13 0C5.82 0 0 5.82 0 13C0 20.17 5.82 26 13 26C20.17 26 26 20.17 26 13C26 5.82 20.17 0 13 0ZM17.99 14.66C17.99 14.66 19.14 15.8 19.43 16.32C19.44 16.33 19.44 16.35 19.44 16.35C19.56 16.54 19.58 16.69 19.53 16.81C19.43 16.99 19.11 17.09 19 17.09L16.97 17.09C16.82 17.09 16.53 17.06 16.17 16.81C15.9 16.62 15.63 16.3 15.36 16C14.97 15.54 14.63 15.14 14.28 15.14C14.24 15.14 14.2 15.15 14.15 15.16C13.89 15.25 13.56 15.62 13.56 16.61C13.56 16.92 13.32 17.09 13.15 17.09L12.22 17.09C11.9 17.09 10.25 16.98 8.78 15.44C6.99 13.55 5.38 9.76 5.37 9.73C5.27 9.48 5.48 9.35 5.71 9.35L7.76 9.35C8.03 9.35 8.12 9.52 8.18 9.66C8.26 9.84 8.52 10.52 8.96 11.29C9.68 12.54 10.12 13.05 10.47 13.05C10.53 13.05 10.6 13.03 10.65 13C11.11 12.75 11.03 11.12 11.01 10.78C11.01 10.71 11.01 10.05 10.77 9.73C10.6 9.5 10.32 9.41 10.14 9.38C10.21 9.28 10.31 9.2 10.41 9.15C10.73 8.99 11.29 8.97 11.86 8.97L12.17 8.97C12.78 8.98 12.94 9.02 13.16 9.07C13.6 9.18 13.61 9.47 13.57 10.45C13.56 10.73 13.55 11.05 13.55 11.42C13.55 11.51 13.54 11.59 13.54 11.68C13.53 12.19 13.52 12.76 13.87 12.99C13.92 13.02 13.97 13.04 14.02 13.04C14.15 13.04 14.52 13.04 15.52 11.31C15.83 10.76 16.1 10.18 16.33 9.59C16.35 9.55 16.41 9.44 16.48 9.4C16.53 9.37 16.59 9.36 16.65 9.36L19.06 9.36C19.32 9.36 19.5 9.4 19.54 9.5C19.6 9.66 19.52 10.16 18.42 11.65L17.93 12.29C16.93 13.6 16.93 13.67 17.99 14.66Z" fill="#FFFFFF" fill-opacity="1.000000" fill-rule="nonzero"/>
</svg>
