<svg width="26.666748" height="18.666626" viewBox="0 0 26.6667 18.6666" fill="none" xmlns="http://www.w3.org/2000/svg" xmlns:xlink="http://www.w3.org/1999/xlink">
	<desc>
			Created with Pixso.
	</desc>
	<defs/>
	<path id="Vector" d="M10.66 13.33L17.58 9.33L10.66 5.33L10.66 13.33ZM26.08 2.89C26.25 3.52 26.37 4.35 26.45 5.42C26.54 6.49 26.58 7.41 26.58 8.21L26.66 9.33C26.66 12.25 26.45 14.4 26.08 15.77C25.74 16.97 24.97 17.74 23.77 18.08C23.14 18.25 22 18.37 20.24 18.45C18.5 18.54 16.91 18.58 15.45 18.58L13.33 18.66C7.74 18.66 4.26 18.45 2.89 18.08C1.69 17.74 0.91 16.97 0.58 15.77C0.41 15.14 0.29 14.3 0.21 13.24C0.12 12.17 0.08 11.25 0.08 10.45L0 9.33C0 6.41 0.21 4.26 0.58 2.89C0.91 1.69 1.69 0.92 2.89 0.58C3.52 0.41 4.66 0.29 6.42 0.21C8.15 0.11 9.74 0.07 11.21 0.07L13.33 0C18.91 0 22.39 0.21 23.77 0.58C24.97 0.92 25.74 1.69 26.08 2.89Z" fill="#FFFFFF" fill-opacity="1.000000" fill-rule="nonzero"/>
</svg>
